<svg version="1.2" xmlns="http://www.w3.org/2000/svg" viewBox="0 0 16 16" width="16" height="16">
	<title>arrow-90deg-left-svg</title>
	<style>
		.s0 { fill: #ffffff } 
	</style>
	<path id="Layer" fill-rule="evenodd" class="s0" d="m1.1 4.9q0-0.1-0.1-0.2 0-0.1 0-0.2 0-0.1 0-0.2 0.1-0.1 0.1-0.2l4-4q0.2-0.1 0.4-0.1 0.2 0 0.4 0.1 0.1 0.2 0.1 0.4 0 0.2-0.1 0.4l-3.2 3.1h9.8q0.5 0 1 0.2 0.4 0.2 0.8 0.5 0.3 0.4 0.5 0.8 0.2 0.5 0.2 1v8q0 0.2-0.1 0.4-0.2 0.1-0.4 0.1-0.2 0-0.4-0.1-0.1-0.2-0.1-0.4v-8q0-0.3-0.1-0.6-0.1-0.2-0.3-0.5-0.3-0.2-0.5-0.3-0.3-0.1-0.6-0.1h-9.8l3.2 3.1q0.1 0.2 0.1 0.4 0 0.2-0.1 0.4-0.2 0.1-0.4 0.1-0.2 0-0.4-0.1z"/>
</svg>