<svg version="1.2" xmlns="http://www.w3.org/2000/svg" viewBox="0 0 16 16" width="16" height="16">
	<title>filter-right-svg</title>
	<style>
		.s0 { fill: #ffffff } 
	</style>
	<path id="Layer" class="s0" d="m14 10.5q0-0.1 0-0.2-0.1-0.1-0.1-0.2-0.1 0-0.2-0.1-0.1 0-0.2 0h-3q-0.2 0-0.4 0.1-0.1 0.2-0.1 0.4 0 0.2 0.1 0.4 0.2 0.1 0.4 0.1h3q0.1 0 0.2 0 0.1-0.1 0.2-0.1 0-0.1 0.1-0.2 0-0.1 0-0.2zm0-3q0-0.1 0-0.2-0.1-0.1-0.1-0.2-0.1 0-0.2-0.1-0.1 0-0.2 0h-7q-0.2 0-0.4 0.1-0.1 0.2-0.1 0.4 0 0.2 0.1 0.4 0.2 0.1 0.4 0.1h7q0.1 0 0.2 0 0.1-0.1 0.2-0.1 0-0.1 0.1-0.2 0-0.1 0-0.2zm0-3q0-0.1 0-0.2-0.1-0.1-0.1-0.2-0.1 0-0.2-0.1-0.1 0-0.2 0h-11q-0.2 0-0.4 0.1-0.1 0.2-0.1 0.4 0 0.2 0.1 0.4 0.2 0.1 0.4 0.1h11q0.1 0 0.2 0 0.1-0.1 0.2-0.1 0-0.1 0.1-0.2 0-0.1 0-0.2z"/>
</svg>