<svg version="1.2" xmlns="http://www.w3.org/2000/svg" viewBox="0 0 100 100" width="100" height="100">
	<title>frame-svg</title>
	<style>
		.s0 { fill: #000000 } 
	</style>
	<filter id="f0">
		<feFlood flood-color="#ffffff" flood-opacity="1" />
		<feBlend mode="normal" in2="SourceGraphic"/>
		<feComposite in2="SourceAlpha" operator="in" />
	</filter>
	<g id="Layer" filter="url(#f0)">
		<g id="Layer">
			<path id="Layer" class="s0" d="m37.2 10.2c-0.4 0-0.7 0.1-1 0.4-0.3 0.3-0.4 0.6-0.4 1 0 0.4 0.1 0.7 0.4 1 0.3 0.3 0.6 0.4 1 0.4h1.6v-2.8z"/>
		</g>
		<g id="Layer">
			<path id="Layer" class="s0" d="m40.4 13c0.4 0 0.7-0.1 1-0.4 0.3-0.3 0.4-0.6 0.4-1 0-0.4-0.1-0.7-0.4-1-0.3-0.3-0.6-0.4-1-0.4h-1.6v2.8z"/>
		</g>
		<g id="Layer">
			<path id="Layer" class="s0" d="m56.4 13c-0.8 0-1.4-0.6-1.4-1.4 0-0.8 0.6-1.4 1.4-1.4 0.8 0 1.4 0.6 1.4 1.4 0 0.8-0.6 1.4-1.4 1.4z"/>
		</g>
		<g id="Layer">
			<path id="Layer" class="s0" d="m62.8 13c-0.8 0-1.4-0.6-1.4-1.4 0-0.8 0.6-1.4 1.4-1.4 0.8 0 1.4 0.6 1.4 1.4 0 0.8-0.6 1.4-1.4 1.4z"/>
		</g>
		<g id="Layer">
			<path id="Layer" class="s0" d="m53.2 16.2c-0.8 0-1.4-0.6-1.4-1.4 0-0.8 0.6-1.4 1.4-1.4 0.8 0 1.4 0.6 1.4 1.4 0 0.8-0.6 1.4-1.4 1.4z"/>
		</g>
		<g id="Layer">
			<path id="Layer" class="s0" d="m59.6 16.2c-0.8 0-1.4-0.6-1.4-1.4 0-0.8 0.6-1.4 1.4-1.4 0.8 0 1.4 0.6 1.4 1.4 0 0.8-0.6 1.4-1.4 1.4z"/>
		</g>
		<g id="Layer">
			<path id="Layer" class="s0" d="m37.2 19.4c-0.8 0-1.4-0.6-1.4-1.4 0-0.8 0.6-1.4 1.4-1.4 0.8 0 1.4 0.6 1.4 1.4 0 0.8-0.6 1.4-1.4 1.4z"/>
		</g>
		<g id="Layer">
			<path id="Layer" class="s0" d="m46.8 16.6c-0.4 0-0.7 0.1-1 0.4-0.3 0.3-0.4 0.6-0.4 1 0 0.4 0.1 0.7 0.4 1 0.3 0.3 0.6 0.4 1 0.4h1.6v-2.8z"/>
		</g>
		<g id="Layer">
			<path id="Layer" class="s0" d="m48.4 16.6h3.2v2.8h-3.2z"/>
		</g>
		<g id="Layer">
			<path id="Layer" class="s0" d="m53.2 19.4c0.4 0 0.7-0.1 1-0.4 0.3-0.3 0.4-0.6 0.4-1 0-0.4-0.1-0.7-0.4-1-0.3-0.3-0.6-0.4-1-0.4h-1.6v2.8z"/>
		</g>
		<g id="Layer">
			<path id="Layer" class="s0" d="m59.6 16.6c-0.4 0-0.7 0.1-1 0.4-0.3 0.3-0.4 0.6-0.4 1 0 0.4 0.1 0.7 0.4 1 0.3 0.3 0.6 0.4 1 0.4h1.6v-2.8z"/>
		</g>
		<g id="Layer">
			<path id="Layer" class="s0" d="m62.8 19.4c0.4 0 0.7-0.1 1-0.4 0.3-0.3 0.4-0.6 0.4-1 0-0.4-0.1-0.7-0.4-1-0.3-0.3-0.6-0.4-1-0.4h-1.6v2.8z"/>
		</g>
		<g id="Layer">
			<path id="Layer" class="s0" d="m37.2 19.8c-0.4 0-0.7 0.1-1 0.4-0.3 0.3-0.4 0.6-0.4 1 0 0.4 0.1 0.7 0.4 1 0.3 0.3 0.6 0.4 1 0.4h1.6v-2.8z"/>
		</g>
		<g id="Layer">
			<path id="Layer" class="s0" d="m40.4 22.6c0.4 0 0.7-0.1 1-0.4 0.3-0.3 0.4-0.6 0.4-1 0-0.4-0.1-0.7-0.4-1-0.3-0.3-0.6-0.4-1-0.4h-1.6v2.8z"/>
		</g>
		<g id="Layer">
			<path id="Layer" class="s0" d="m46.8 22.6c-0.8 0-1.4-0.6-1.4-1.4 0-0.8 0.6-1.4 1.4-1.4 0.8 0 1.4 0.6 1.4 1.4 0 0.8-0.6 1.4-1.4 1.4z"/>
		</g>
		<g id="Layer">
			<path id="Layer" class="s0" d="m53.2 22.6c-0.8 0-1.4-0.6-1.4-1.4 0-0.8 0.6-1.4 1.4-1.4 0.8 0 1.4 0.6 1.4 1.4 0 0.8-0.6 1.4-1.4 1.4z"/>
		</g>
		<g id="Layer">
			<path id="Layer" class="s0" d="m59.6 19.8c-0.4 0-0.7 0.1-1 0.4-0.3 0.3-0.4 0.6-0.4 1 0 0.4 0.1 0.7 0.4 1 0.3 0.3 0.6 0.4 1 0.4h1.6v-2.8z"/>
		</g>
		<g id="Layer">
			<path id="Layer" class="s0" d="m62.8 22.6c0.4 0 0.7-0.1 1-0.4 0.3-0.3 0.4-0.6 0.4-1 0-0.4-0.1-0.7-0.4-1-0.3-0.3-0.6-0.4-1-0.4h-1.6v2.8z"/>
		</g>
		<g id="Layer">
			<path id="Layer" class="s0" d="m37.2 23c-0.4 0-0.7 0.1-1 0.4-0.3 0.3-0.4 0.6-0.4 1 0 0.4 0.1 0.7 0.4 1 0.3 0.3 0.6 0.4 1 0.4h1.6v-2.8z"/>
		</g>
		<g id="Layer">
			<path id="Layer" class="s0" d="m38.8 23h3.2v2.8h-3.2z"/>
		</g>
		<g id="Layer">
			<path id="Layer" class="s0" d="m42 23h3.2v2.8h-3.2z"/>
		</g>
		<g id="Layer">
			<path id="Layer" class="s0" d="m46.8 25.8c0.4 0 0.7-0.1 1-0.4 0.3-0.3 0.4-0.6 0.4-1 0-0.4-0.1-0.7-0.4-1-0.3-0.3-0.6-0.4-1-0.4h-1.6v2.8z"/>
		</g>
		<g id="Layer">
			<path id="Layer" class="s0" d="m56.4 25.8c-0.8 0-1.4-0.6-1.4-1.4 0-0.8 0.6-1.4 1.4-1.4 0.8 0 1.4 0.6 1.4 1.4 0 0.8-0.6 1.4-1.4 1.4z"/>
		</g>
		<g id="Layer">
			<path id="Layer" class="s0" d="m62.8 25.8c-0.8 0-1.4-0.6-1.4-1.4 0-0.8 0.6-1.4 1.4-1.4 0.8 0 1.4 0.6 1.4 1.4 0 0.8-0.6 1.4-1.4 1.4z"/>
		</g>
		<g id="Layer">
			<path id="Layer" class="s0" d="m40.4 29c-0.8 0-1.4-0.6-1.4-1.4 0-0.8 0.6-1.4 1.4-1.4 0.8 0 1.4 0.6 1.4 1.4 0 0.8-0.6 1.4-1.4 1.4z"/>
		</g>
		<g id="Layer">
			<path id="Layer" class="s0" d="m50 29c-0.8 0-1.4-0.6-1.4-1.4 0-0.8 0.6-1.4 1.4-1.4 0.8 0 1.4 0.6 1.4 1.4 0 0.8-0.6 1.4-1.4 1.4z"/>
		</g>
		<g id="Layer">
			<path id="Layer" class="s0" d="m56.4 29c-0.8 0-1.4-0.6-1.4-1.4 0-0.8 0.6-1.4 1.4-1.4 0.8 0 1.4 0.6 1.4 1.4 0 0.8-0.6 1.4-1.4 1.4z"/>
		</g>
		<g id="Layer">
			<path id="Layer" class="s0" d="m62.8 29c-0.8 0-1.4-0.6-1.4-1.4 0-0.8 0.6-1.4 1.4-1.4 0.8 0 1.4 0.6 1.4 1.4 0 0.8-0.6 1.4-1.4 1.4z"/>
		</g>
		<g id="Layer">
			<path id="Layer" class="s0" d="m37.2 32.2c-0.8 0-1.4-0.6-1.4-1.4 0-0.8 0.6-1.4 1.4-1.4 0.8 0 1.4 0.6 1.4 1.4 0 0.8-0.6 1.4-1.4 1.4z"/>
		</g>
		<g id="Layer">
			<path id="Layer" class="s0" d="m43.6 32.2c-0.8 0-1.4-0.6-1.4-1.4 0-0.8 0.6-1.4 1.4-1.4 0.8 0 1.4 0.6 1.4 1.4 0 0.8-0.6 1.4-1.4 1.4z"/>
		</g>
		<g id="Layer">
			<path id="Layer" class="s0" d="m50 32.2c-0.8 0-1.4-0.6-1.4-1.4 0-0.8 0.6-1.4 1.4-1.4 0.8 0 1.4 0.6 1.4 1.4 0 0.8-0.6 1.4-1.4 1.4z"/>
		</g>
		<g id="Layer">
			<path id="Layer" class="s0" d="m56.4 32.2c-0.8 0-1.4-0.6-1.4-1.4 0-0.8 0.6-1.4 1.4-1.4 0.8 0 1.4 0.6 1.4 1.4 0 0.8-0.6 1.4-1.4 1.4z"/>
		</g>
		<g id="Layer">
			<path id="Layer" class="s0" d="m62.8 32.2c-0.8 0-1.4-0.6-1.4-1.4 0-0.8 0.6-1.4 1.4-1.4 0.8 0 1.4 0.6 1.4 1.4 0 0.8-0.6 1.4-1.4 1.4z"/>
		</g>
		<g id="Layer">
			<path id="Layer" class="s0" d="m40.4 35.4c-0.8 0-1.4-0.6-1.4-1.4 0-0.8 0.6-1.4 1.4-1.4 0.8 0 1.4 0.6 1.4 1.4 0 0.8-0.6 1.4-1.4 1.4z"/>
		</g>
		<g id="Layer">
			<path id="Layer" class="s0" d="m46.8 35.4c-0.8 0-1.4-0.6-1.4-1.4 0-0.8 0.6-1.4 1.4-1.4 0.8 0 1.4 0.6 1.4 1.4 0 0.8-0.6 1.4-1.4 1.4z"/>
		</g>
		<g id="Layer">
			<path id="Layer" class="s0" d="m56.4 32.6c-0.4 0-0.7 0.1-1 0.4-0.3 0.3-0.4 0.6-0.4 1 0 0.4 0.1 0.7 0.4 1 0.3 0.3 0.6 0.4 1 0.4h1.6v-2.8z"/>
		</g>
		<g id="Layer">
			<path id="Layer" class="s0" d="m58 32.6h3.2v2.8h-3.2z"/>
		</g>
		<g id="Layer">
			<path id="Layer" class="s0" d="m62.8 35.4c0.4 0 0.7-0.1 1-0.4 0.3-0.3 0.4-0.6 0.4-1 0-0.4-0.1-0.7-0.4-1-0.3-0.3-0.6-0.4-1-0.4h-1.6v2.8z"/>
		</g>
		<g id="Layer">
			<path id="Layer" class="s0" d="m11.6 35.8c-0.4 0-0.7 0.1-1 0.4-0.3 0.3-0.4 0.6-0.4 1 0 0.4 0.1 0.7 0.4 1 0.3 0.3 0.6 0.4 1 0.4h1.6v-2.8z"/>
		</g>
		<g id="Layer">
			<path id="Layer" class="s0" d="m13.2 35.8h3.2v2.8h-3.2z"/>
		</g>
		<g id="Layer">
			<path id="Layer" class="s0" d="m16.4 35.8h3.2v2.8h-3.2z"/>
		</g>
		<g id="Layer">
			<path id="Layer" class="s0" d="m21.2 38.6c0.4 0 0.7-0.1 1-0.4 0.3-0.3 0.4-0.6 0.4-1 0-0.4-0.1-0.7-0.4-1-0.3-0.3-0.6-0.4-1-0.4h-1.6v2.8z"/>
		</g>
		<g id="Layer">
			<path id="Layer" class="s0" d="m30.8 38.6c-0.8 0-1.4-0.6-1.4-1.4 0-0.8 0.6-1.4 1.4-1.4 0.8 0 1.4 0.6 1.4 1.4 0 0.8-0.6 1.4-1.4 1.4z"/>
		</g>
		<g id="Layer">
			<path id="Layer" class="s0" d="m37.2 38.6c-0.8 0-1.4-0.6-1.4-1.4 0-0.8 0.6-1.4 1.4-1.4 0.8 0 1.4 0.6 1.4 1.4 0 0.8-0.6 1.4-1.4 1.4z"/>
		</g>
		<g id="Layer">
			<path id="Layer" class="s0" d="m53.2 35.8c-0.4 0-0.7 0.1-1 0.4-0.3 0.3-0.4 0.6-0.4 1 0 0.4 0.1 0.7 0.4 1 0.3 0.3 0.6 0.4 1 0.4h1.6v-2.8z"/>
		</g>
		<g id="Layer">
			<path id="Layer" class="s0" d="m56.4 38.6c0.4 0 0.7-0.1 1-0.4 0.3-0.3 0.4-0.6 0.4-1 0-0.4-0.1-0.7-0.4-1-0.3-0.3-0.6-0.4-1-0.4h-1.6v2.8z"/>
		</g>
		<g id="Layer">
			<path id="Layer" class="s0" d="m62.8 35.8c-0.4 0-0.7 0.1-1 0.4-0.3 0.3-0.4 0.6-0.4 1 0 0.4 0.1 0.7 0.4 1 0.3 0.3 0.6 0.4 1 0.4h1.6v-2.8z"/>
		</g>
		<g id="Layer">
			<path id="Layer" class="s0" d="m66 38.6c0.4 0 0.7-0.1 1-0.4 0.3-0.3 0.4-0.6 0.4-1 0-0.4-0.1-0.7-0.4-1-0.3-0.3-0.6-0.4-1-0.4h-1.6v2.8z"/>
		</g>
		<g id="Layer">
			<path id="Layer" class="s0" d="m75.6 35.8c-0.4 0-0.7 0.1-1 0.4-0.3 0.3-0.4 0.6-0.4 1 0 0.4 0.1 0.7 0.4 1 0.3 0.3 0.6 0.4 1 0.4h1.6v-2.8z"/>
		</g>
		<g id="Layer">
			<path id="Layer" class="s0" d="m77.2 35.8h3.2v2.8h-3.2z"/>
		</g>
		<g id="Layer">
			<path id="Layer" class="s0" d="m82 38.6c0.4 0 0.7-0.1 1-0.4 0.3-0.3 0.4-0.6 0.4-1 0-0.4-0.1-0.7-0.4-1-0.3-0.3-0.6-0.4-1-0.4h-1.6v2.8z"/>
		</g>
		<g id="Layer">
			<path id="Layer" class="s0" d="m88.4 38.6c-0.8 0-1.4-0.6-1.4-1.4 0-0.8 0.6-1.4 1.4-1.4 0.8 0 1.4 0.6 1.4 1.4 0 0.8-0.6 1.4-1.4 1.4z"/>
		</g>
		<g id="Layer">
			<path id="Layer" class="s0" d="m14.8 41.8c-0.8 0-1.4-0.6-1.4-1.4 0-0.8 0.6-1.4 1.4-1.4 0.8 0 1.4 0.6 1.4 1.4 0 0.8-0.6 1.4-1.4 1.4z"/>
		</g>
		<g id="Layer">
			<path id="Layer" class="s0" d="m21.2 41.8c-0.8 0-1.4-0.6-1.4-1.4 0-0.8 0.6-1.4 1.4-1.4 0.8 0 1.4 0.6 1.4 1.4 0 0.8-0.6 1.4-1.4 1.4z"/>
		</g>
		<g id="Layer">
			<path id="Layer" class="s0" d="m27.6 41.8c-0.8 0-1.4-0.6-1.4-1.4 0-0.8 0.6-1.4 1.4-1.4 0.8 0 1.4 0.6 1.4 1.4 0 0.8-0.6 1.4-1.4 1.4z"/>
		</g>
		<g id="Layer">
			<path id="Layer" class="s0" d="m34 39c-0.4 0-0.7 0.1-1 0.4-0.3 0.3-0.4 0.6-0.4 1 0 0.4 0.1 0.7 0.4 1 0.3 0.3 0.6 0.4 1 0.4h1.6v-2.8z"/>
		</g>
		<g id="Layer">
			<path id="Layer" class="s0" d="m35.6 39h3.2v2.8h-3.2z"/>
		</g>
		<g id="Layer">
			<path id="Layer" class="s0" d="m40.4 41.8c0.4 0 0.7-0.1 1-0.4 0.3-0.3 0.4-0.6 0.4-1 0-0.4-0.1-0.7-0.4-1-0.3-0.3-0.6-0.4-1-0.4h-1.6v2.8z"/>
		</g>
		<g id="Layer">
			<path id="Layer" class="s0" d="m56.4 39c-0.4 0-0.7 0.1-1 0.4-0.3 0.3-0.4 0.6-0.4 1 0 0.4 0.1 0.7 0.4 1 0.3 0.3 0.6 0.4 1 0.4h1.6v-2.8z"/>
		</g>
		<g id="Layer">
			<path id="Layer" class="s0" d="m58 39h3.2v2.8h-3.2z"/>
		</g>
		<g id="Layer">
			<path id="Layer" class="s0" d="m61.2 39h3.2v2.8h-3.2z"/>
		</g>
		<g id="Layer">
			<path id="Layer" class="s0" d="m66 41.8c0.4 0 0.7-0.1 1-0.4 0.3-0.3 0.4-0.6 0.4-1 0-0.4-0.1-0.7-0.4-1-0.3-0.3-0.6-0.4-1-0.4h-1.6v2.8z"/>
		</g>
		<g id="Layer">
			<path id="Layer" class="s0" d="m72.4 39c-0.4 0-0.7 0.1-1 0.4-0.3 0.3-0.4 0.6-0.4 1 0 0.4 0.1 0.7 0.4 1 0.3 0.3 0.6 0.4 1 0.4h1.6v-2.8z"/>
		</g>
		<g id="Layer">
			<path id="Layer" class="s0" d="m75.6 41.8c0.4 0 0.7-0.1 1-0.4 0.3-0.3 0.4-0.6 0.4-1 0-0.4-0.1-0.7-0.4-1-0.3-0.3-0.6-0.4-1-0.4h-1.6v2.8z"/>
		</g>
		<g id="Layer">
			<path id="Layer" class="s0" d="m88.4 41.8c-0.8 0-1.4-0.6-1.4-1.4 0-0.8 0.6-1.4 1.4-1.4 0.8 0 1.4 0.6 1.4 1.4 0 0.8-0.6 1.4-1.4 1.4z"/>
		</g>
		<g id="Layer">
			<path id="Layer" class="s0" d="m11.6 42.2c-0.4 0-0.7 0.1-1 0.4-0.3 0.3-0.4 0.6-0.4 1 0 0.4 0.1 0.7 0.4 1 0.3 0.3 0.6 0.4 1 0.4h1.6v-2.8z"/>
		</g>
		<g id="Layer">
			<path id="Layer" class="s0" d="m14.8 45c0.4 0 0.7-0.1 1-0.4 0.3-0.3 0.4-0.6 0.4-1 0-0.4-0.1-0.7-0.4-1-0.3-0.3-0.6-0.4-1-0.4h-1.6v2.8z"/>
		</g>
		<g id="Layer">
			<path id="Layer" class="s0" d="m24.4 45c-0.8 0-1.4-0.6-1.4-1.4 0-0.8 0.6-1.4 1.4-1.4 0.8 0 1.4 0.6 1.4 1.4 0 0.8-0.6 1.4-1.4 1.4z"/>
		</g>
		<g id="Layer">
			<path id="Layer" class="s0" d="m30.8 42.2c-0.4 0-0.7 0.1-1 0.4-0.3 0.3-0.4 0.6-0.4 1 0 0.4 0.1 0.7 0.4 1 0.3 0.3 0.6 0.4 1 0.4h1.6v-2.8z"/>
		</g>
		<g id="Layer">
			<path id="Layer" class="s0" d="m32.4 42.2h3.2v2.8h-3.2z"/>
		</g>
		<g id="Layer">
			<path id="Layer" class="s0" d="m37.2 45c0.4 0 0.7-0.1 1-0.4 0.3-0.3 0.4-0.6 0.4-1 0-0.4-0.1-0.7-0.4-1-0.3-0.3-0.6-0.4-1-0.4h-1.6v2.8z"/>
		</g>
		<g id="Layer">
			<path id="Layer" class="s0" d="m53.2 45c-0.8 0-1.4-0.6-1.4-1.4 0-0.8 0.6-1.4 1.4-1.4 0.8 0 1.4 0.6 1.4 1.4 0 0.8-0.6 1.4-1.4 1.4z"/>
		</g>
		<g id="Layer">
			<path id="Layer" class="s0" d="m78.8 42.2c-0.4 0-0.7 0.1-1 0.4-0.3 0.3-0.4 0.6-0.4 1 0 0.4 0.1 0.7 0.4 1 0.3 0.3 0.6 0.4 1 0.4h1.6v-2.8z"/>
		</g>
		<g id="Layer">
			<path id="Layer" class="s0" d="m80.4 42.2h3.2v2.8h-3.2z"/>
		</g>
		<g id="Layer">
			<path id="Layer" class="s0" d="m83.6 42.2h3.2v2.8h-3.2z"/>
		</g>
		<g id="Layer">
			<path id="Layer" class="s0" d="m88.4 45c0.4 0 0.7-0.1 1-0.4 0.3-0.3 0.4-0.6 0.4-1 0-0.4-0.1-0.7-0.4-1-0.3-0.3-0.6-0.4-1-0.4h-1.6v2.8z"/>
		</g>
		<g id="Layer">
			<path id="Layer" class="s0" d="m11.6 48.2c-0.8 0-1.4-0.6-1.4-1.4 0-0.8 0.6-1.4 1.4-1.4 0.8 0 1.4 0.6 1.4 1.4 0 0.8-0.6 1.4-1.4 1.4z"/>
		</g>
		<g id="Layer">
			<path id="Layer" class="s0" d="m18 45.4c-0.4 0-0.7 0.1-1 0.4-0.3 0.3-0.4 0.6-0.4 1 0 0.4 0.1 0.7 0.4 1 0.3 0.3 0.6 0.4 1 0.4h1.6v-2.8z"/>
		</g>
		<g id="Layer">
			<path id="Layer" class="s0" d="m21.2 48.2c0.4 0 0.7-0.1 1-0.4 0.3-0.3 0.4-0.6 0.4-1 0-0.4-0.1-0.7-0.4-1-0.3-0.3-0.6-0.4-1-0.4h-1.6v2.8z"/>
		</g>
		<g id="Layer">
			<path id="Layer" class="s0" d="m27.6 48.2c-0.8 0-1.4-0.6-1.4-1.4 0-0.8 0.6-1.4 1.4-1.4 0.8 0 1.4 0.6 1.4 1.4 0 0.8-0.6 1.4-1.4 1.4z"/>
		</g>
		<g id="Layer">
			<path id="Layer" class="s0" d="m46.8 45.4c-0.4 0-0.7 0.1-1 0.4-0.3 0.3-0.4 0.6-0.4 1 0 0.4 0.1 0.7 0.4 1 0.3 0.3 0.6 0.4 1 0.4h1.6v-2.8z"/>
		</g>
		<g id="Layer">
			<path id="Layer" class="s0" d="m50 48.2c0.4 0 0.7-0.1 1-0.4 0.3-0.3 0.4-0.6 0.4-1 0-0.4-0.1-0.7-0.4-1-0.3-0.3-0.6-0.4-1-0.4h-1.6v2.8z"/>
		</g>
		<g id="Layer">
			<path id="Layer" class="s0" d="m59.6 48.2c-0.8 0-1.4-0.6-1.4-1.4 0-0.8 0.6-1.4 1.4-1.4 0.8 0 1.4 0.6 1.4 1.4 0 0.8-0.6 1.4-1.4 1.4z"/>
		</g>
		<g id="Layer">
			<path id="Layer" class="s0" d="m66 45.4c-0.4 0-0.7 0.1-1 0.4-0.3 0.3-0.4 0.6-0.4 1 0 0.4 0.1 0.7 0.4 1 0.3 0.3 0.6 0.4 1 0.4h1.6v-2.8z"/>
		</g>
		<g id="Layer">
			<path id="Layer" class="s0" d="m67.6 45.4h3.2v2.8h-3.2z"/>
		</g>
		<g id="Layer">
			<path id="Layer" class="s0" d="m72.4 48.2c0.4 0 0.7-0.1 1-0.4 0.3-0.3 0.4-0.6 0.4-1 0-0.4-0.1-0.7-0.4-1-0.3-0.3-0.6-0.4-1-0.4h-1.6v2.8z"/>
		</g>
		<g id="Layer">
			<path id="Layer" class="s0" d="m78.8 45.4c-0.4 0-0.7 0.1-1 0.4-0.3 0.3-0.4 0.6-0.4 1 0 0.4 0.1 0.7 0.4 1 0.3 0.3 0.6 0.4 1 0.4h1.6v-2.8z"/>
		</g>
		<g id="Layer">
			<path id="Layer" class="s0" d="m82 48.2c0.4 0 0.7-0.1 1-0.4 0.3-0.3 0.4-0.6 0.4-1 0-0.4-0.1-0.7-0.4-1-0.3-0.3-0.6-0.4-1-0.4h-1.6v2.8z"/>
		</g>
		<g id="Layer">
			<path id="Layer" class="s0" d="m88.4 48.2c-0.8 0-1.4-0.6-1.4-1.4 0-0.8 0.6-1.4 1.4-1.4 0.8 0 1.4 0.6 1.4 1.4 0 0.8-0.6 1.4-1.4 1.4z"/>
		</g>
		<g id="Layer">
			<path id="Layer" class="s0" d="m14.8 48.6c-0.4 0-0.7 0.1-1 0.4-0.3 0.3-0.4 0.6-0.4 1 0 0.4 0.1 0.7 0.4 1 0.3 0.3 0.6 0.4 1 0.4h1.6v-2.8z"/>
		</g>
		<g id="Layer">
			<path id="Layer" class="s0" d="m18 51.4c0.4 0 0.7-0.1 1-0.4 0.3-0.3 0.4-0.6 0.4-1 0-0.4-0.1-0.7-0.4-1-0.3-0.3-0.6-0.4-1-0.4h-1.6v2.8z"/>
		</g>
		<g id="Layer">
			<path id="Layer" class="s0" d="m30.8 48.6c-0.4 0-0.7 0.1-1 0.4-0.3 0.3-0.4 0.6-0.4 1 0 0.4 0.1 0.7 0.4 1 0.3 0.3 0.6 0.4 1 0.4h1.6v-2.8z"/>
		</g>
		<g id="Layer">
			<path id="Layer" class="s0" d="m34 51.4c0.4 0 0.7-0.1 1-0.4 0.3-0.3 0.4-0.6 0.4-1 0-0.4-0.1-0.7-0.4-1-0.3-0.3-0.6-0.4-1-0.4h-1.6v2.8z"/>
		</g>
		<g id="Layer">
			<path id="Layer" class="s0" d="m40.4 51.4c-0.8 0-1.4-0.6-1.4-1.4 0-0.8 0.6-1.4 1.4-1.4 0.8 0 1.4 0.6 1.4 1.4 0 0.8-0.6 1.4-1.4 1.4z"/>
		</g>
		<g id="Layer">
			<path id="Layer" class="s0" d="m46.8 51.4c-0.8 0-1.4-0.6-1.4-1.4 0-0.8 0.6-1.4 1.4-1.4 0.8 0 1.4 0.6 1.4 1.4 0 0.8-0.6 1.4-1.4 1.4z"/>
		</g>
		<g id="Layer">
			<path id="Layer" class="s0" d="m59.6 51.4c-0.8 0-1.4-0.6-1.4-1.4 0-0.8 0.6-1.4 1.4-1.4 0.8 0 1.4 0.6 1.4 1.4 0 0.8-0.6 1.4-1.4 1.4z"/>
		</g>
		<g id="Layer">
			<path id="Layer" class="s0" d="m69.2 48.6c-0.4 0-0.7 0.1-1 0.4-0.3 0.3-0.4 0.6-0.4 1 0 0.4 0.1 0.7 0.4 1 0.3 0.3 0.6 0.4 1 0.4h1.6v-2.8z"/>
		</g>
		<g id="Layer">
			<path id="Layer" class="s0" d="m70.8 48.6h3.2v2.8h-3.2z"/>
		</g>
		<g id="Layer">
			<path id="Layer" class="s0" d="m74 48.6h3.2v2.8h-3.2z"/>
		</g>
		<g id="Layer">
			<path id="Layer" class="s0" d="m78.8 51.4c0.4 0 0.7-0.1 1-0.4 0.3-0.3 0.4-0.6 0.4-1 0-0.4-0.1-0.7-0.4-1-0.3-0.3-0.6-0.4-1-0.4h-1.6v2.8z"/>
		</g>
		<g id="Layer">
			<path id="Layer" class="s0" d="m85.2 48.6c-0.4 0-0.7 0.1-1 0.4-0.3 0.3-0.4 0.6-0.4 1 0 0.4 0.1 0.7 0.4 1 0.3 0.3 0.6 0.4 1 0.4h1.6v-2.8z"/>
		</g>
		<g id="Layer">
			<path id="Layer" class="s0" d="m88.4 51.4c0.4 0 0.7-0.1 1-0.4 0.3-0.3 0.4-0.6 0.4-1 0-0.4-0.1-0.7-0.4-1-0.3-0.3-0.6-0.4-1-0.4h-1.6v2.8z"/>
		</g>
		<g id="Layer">
			<path id="Layer" class="s0" d="m24.4 54.6c-0.8 0-1.4-0.6-1.4-1.4 0-0.8 0.6-1.4 1.4-1.4 0.8 0 1.4 0.6 1.4 1.4 0 0.8-0.6 1.4-1.4 1.4z"/>
		</g>
		<g id="Layer">
			<path id="Layer" class="s0" d="m43.6 51.8c-0.4 0-0.7 0.1-1 0.4-0.3 0.3-0.4 0.6-0.4 1 0 0.4 0.1 0.7 0.4 1 0.3 0.3 0.6 0.4 1 0.4h1.6v-2.8z"/>
		</g>
		<g id="Layer">
			<path id="Layer" class="s0" d="m46.8 54.6c0.4 0 0.7-0.1 1-0.4 0.3-0.3 0.4-0.6 0.4-1 0-0.4-0.1-0.7-0.4-1-0.3-0.3-0.6-0.4-1-0.4h-1.6v2.8z"/>
		</g>
		<g id="Layer">
			<path id="Layer" class="s0" d="m56.4 51.8c-0.4 0-0.7 0.1-1 0.4-0.3 0.3-0.4 0.6-0.4 1 0 0.4 0.1 0.7 0.4 1 0.3 0.3 0.6 0.4 1 0.4h1.6v-2.8z"/>
		</g>
		<g id="Layer">
			<path id="Layer" class="s0" d="m58 51.8h3.2v2.8h-3.2z"/>
		</g>
		<g id="Layer">
			<path id="Layer" class="s0" d="m62.8 54.6c0.4 0 0.7-0.1 1-0.4 0.3-0.3 0.4-0.6 0.4-1 0-0.4-0.1-0.7-0.4-1-0.3-0.3-0.6-0.4-1-0.4h-1.6v2.8z"/>
		</g>
		<g id="Layer">
			<path id="Layer" class="s0" d="m72.4 54.6c-0.8 0-1.4-0.6-1.4-1.4 0-0.8 0.6-1.4 1.4-1.4 0.8 0 1.4 0.6 1.4 1.4 0 0.8-0.6 1.4-1.4 1.4z"/>
		</g>
		<g id="Layer">
			<path id="Layer" class="s0" d="m78.8 54.6c-0.8 0-1.4-0.6-1.4-1.4 0-0.8 0.6-1.4 1.4-1.4 0.8 0 1.4 0.6 1.4 1.4 0 0.8-0.6 1.4-1.4 1.4z"/>
		</g>
		<g id="Layer">
			<path id="Layer" class="s0" d="m85.2 51.8c-0.4 0-0.7 0.1-1 0.4-0.3 0.3-0.4 0.6-0.4 1 0 0.4 0.1 0.7 0.4 1 0.3 0.3 0.6 0.4 1 0.4h1.6v-2.8z"/>
		</g>
		<g id="Layer">
			<path id="Layer" class="s0" d="m88.4 54.6c0.4 0 0.7-0.1 1-0.4 0.3-0.3 0.4-0.6 0.4-1 0-0.4-0.1-0.7-0.4-1-0.3-0.3-0.6-0.4-1-0.4h-1.6v2.8z"/>
		</g>
		<g id="Layer">
			<path id="Layer" class="s0" d="m14.8 57.8c-0.8 0-1.4-0.6-1.4-1.4 0-0.8 0.6-1.4 1.4-1.4 0.8 0 1.4 0.6 1.4 1.4 0 0.8-0.6 1.4-1.4 1.4z"/>
		</g>
		<g id="Layer">
			<path id="Layer" class="s0" d="m30.8 57.8c-0.8 0-1.4-0.6-1.4-1.4 0-0.8 0.6-1.4 1.4-1.4 0.8 0 1.4 0.6 1.4 1.4 0 0.8-0.6 1.4-1.4 1.4z"/>
		</g>
		<g id="Layer">
			<path id="Layer" class="s0" d="m40.4 55c-0.4 0-0.7 0.1-1 0.4-0.3 0.3-0.4 0.6-0.4 1 0 0.4 0.1 0.7 0.4 1 0.3 0.3 0.6 0.4 1 0.4h1.6v-2.8z"/>
		</g>
		<g id="Layer">
			<path id="Layer" class="s0" d="m43.6 57.8c0.4 0 0.7-0.1 1-0.4 0.3-0.3 0.4-0.6 0.4-1 0-0.4-0.1-0.7-0.4-1-0.3-0.3-0.6-0.4-1-0.4h-1.6v2.8z"/>
		</g>
		<g id="Layer">
			<path id="Layer" class="s0" d="m50 55c-0.4 0-0.7 0.1-1 0.4-0.3 0.3-0.4 0.6-0.4 1 0 0.4 0.1 0.7 0.4 1 0.3 0.3 0.6 0.4 1 0.4h1.6v-2.8z"/>
		</g>
		<g id="Layer">
			<path id="Layer" class="s0" d="m51.6 55h3.2v2.8h-3.2z"/>
		</g>
		<g id="Layer">
			<path id="Layer" class="s0" d="m54.8 55h3.2v2.8h-3.2z"/>
		</g>
		<g id="Layer">
			<path id="Layer" class="s0" d="m58 55h3.2v2.8h-3.2z"/>
		</g>
		<g id="Layer">
			<path id="Layer" class="s0" d="m61.2 55h3.2v2.8h-3.2z"/>
		</g>
		<g id="Layer">
			<path id="Layer" class="s0" d="m66 57.8c0.4 0 0.7-0.1 1-0.4 0.3-0.3 0.4-0.6 0.4-1 0-0.4-0.1-0.7-0.4-1-0.3-0.3-0.6-0.4-1-0.4h-1.6v2.8z"/>
		</g>
		<g id="Layer">
			<path id="Layer" class="s0" d="m72.4 55c-0.4 0-0.7 0.1-1 0.4-0.3 0.3-0.4 0.6-0.4 1 0 0.4 0.1 0.7 0.4 1 0.3 0.3 0.6 0.4 1 0.4h1.6v-2.8z"/>
		</g>
		<g id="Layer">
			<path id="Layer" class="s0" d="m74 55h3.2v2.8h-3.2z"/>
		</g>
		<g id="Layer">
			<path id="Layer" class="s0" d="m78.8 57.8c0.4 0 0.7-0.1 1-0.4 0.3-0.3 0.4-0.6 0.4-1 0-0.4-0.1-0.7-0.4-1-0.3-0.3-0.6-0.4-1-0.4h-1.6v2.8z"/>
		</g>
		<g id="Layer">
			<path id="Layer" class="s0" d="m85.2 57.8c-0.8 0-1.4-0.6-1.4-1.4 0-0.8 0.6-1.4 1.4-1.4 0.8 0 1.4 0.6 1.4 1.4 0 0.8-0.6 1.4-1.4 1.4z"/>
		</g>
		<g id="Layer">
			<path id="Layer" class="s0" d="m11.6 61c-0.8 0-1.4-0.6-1.4-1.4 0-0.8 0.6-1.4 1.4-1.4 0.8 0 1.4 0.6 1.4 1.4 0 0.8-0.6 1.4-1.4 1.4z"/>
		</g>
		<g id="Layer">
			<path id="Layer" class="s0" d="m21.2 58.2c-0.4 0-0.7 0.1-1 0.4-0.3 0.3-0.4 0.6-0.4 1 0 0.4 0.1 0.7 0.4 1 0.3 0.3 0.6 0.4 1 0.4h1.6v-2.8z"/>
		</g>
		<g id="Layer">
			<path id="Layer" class="s0" d="m24.4 61c0.4 0 0.7-0.1 1-0.4 0.3-0.3 0.4-0.6 0.4-1 0-0.4-0.1-0.7-0.4-1-0.3-0.3-0.6-0.4-1-0.4h-1.6v2.8z"/>
		</g>
		<g id="Layer">
			<path id="Layer" class="s0" d="m37.2 58.2c-0.4 0-0.7 0.1-1 0.4-0.3 0.3-0.4 0.6-0.4 1 0 0.4 0.1 0.7 0.4 1 0.3 0.3 0.6 0.4 1 0.4h1.6v-2.8z"/>
		</g>
		<g id="Layer">
			<path id="Layer" class="s0" d="m38.8 58.2h3.2v2.8h-3.2z"/>
		</g>
		<g id="Layer">
			<path id="Layer" class="s0" d="m43.6 61c0.4 0 0.7-0.1 1-0.4 0.3-0.3 0.4-0.6 0.4-1 0-0.4-0.1-0.7-0.4-1-0.3-0.3-0.6-0.4-1-0.4h-1.6v2.8z"/>
		</g>
		<g id="Layer">
			<path id="Layer" class="s0" d="m50 58.2c-0.4 0-0.7 0.1-1 0.4-0.3 0.3-0.4 0.6-0.4 1 0 0.4 0.1 0.7 0.4 1 0.3 0.3 0.6 0.4 1 0.4h1.6v-2.8z"/>
		</g>
		<g id="Layer">
			<path id="Layer" class="s0" d="m53.2 61c0.4 0 0.7-0.1 1-0.4 0.3-0.3 0.4-0.6 0.4-1 0-0.4-0.1-0.7-0.4-1-0.3-0.3-0.6-0.4-1-0.4h-1.6v2.8z"/>
		</g>
		<g id="Layer">
			<path id="Layer" class="s0" d="m66 61c-0.8 0-1.4-0.6-1.4-1.4 0-0.8 0.6-1.4 1.4-1.4 0.8 0 1.4 0.6 1.4 1.4 0 0.8-0.6 1.4-1.4 1.4z"/>
		</g>
		<g id="Layer">
			<path id="Layer" class="s0" d="m85.2 58.2c-0.4 0-0.7 0.1-1 0.4-0.3 0.3-0.4 0.6-0.4 1 0 0.4 0.1 0.7 0.4 1 0.3 0.3 0.6 0.4 1 0.4h1.6v-2.8z"/>
		</g>
		<g id="Layer">
			<path id="Layer" class="s0" d="m88.4 61c0.4 0 0.7-0.1 1-0.4 0.3-0.3 0.4-0.6 0.4-1 0-0.4-0.1-0.7-0.4-1-0.3-0.3-0.6-0.4-1-0.4h-1.6v2.8z"/>
		</g>
		<g id="Layer">
			<path id="Layer" class="s0" d="m18 61.4c-0.4 0-0.7 0.1-1 0.4-0.3 0.3-0.4 0.6-0.4 1 0 0.4 0.1 0.7 0.4 1 0.3 0.3 0.6 0.4 1 0.4h1.6v-2.8z"/>
		</g>
		<g id="Layer">
			<path id="Layer" class="s0" d="m21.2 64.2c0.4 0 0.7-0.1 1-0.4 0.3-0.3 0.4-0.6 0.4-1 0-0.4-0.1-0.7-0.4-1-0.3-0.3-0.6-0.4-1-0.4h-1.6v2.8z"/>
		</g>
		<g id="Layer">
			<path id="Layer" class="s0" d="m27.6 61.4c-0.4 0-0.7 0.1-1 0.4-0.3 0.3-0.4 0.6-0.4 1 0 0.4 0.1 0.7 0.4 1 0.3 0.3 0.6 0.4 1 0.4h1.6v-2.8z"/>
		</g>
		<g id="Layer">
			<path id="Layer" class="s0" d="m29.2 61.4h3.2v2.8h-3.2z"/>
		</g>
		<g id="Layer">
			<path id="Layer" class="s0" d="m34 64.2c0.4 0 0.7-0.1 1-0.4 0.3-0.3 0.4-0.6 0.4-1 0-0.4-0.1-0.7-0.4-1-0.3-0.3-0.6-0.4-1-0.4h-1.6v2.8z"/>
		</g>
		<g id="Layer">
			<path id="Layer" class="s0" d="m40.4 64.2c-0.8 0-1.4-0.6-1.4-1.4 0-0.8 0.6-1.4 1.4-1.4 0.8 0 1.4 0.6 1.4 1.4 0 0.8-0.6 1.4-1.4 1.4z"/>
		</g>
		<g id="Layer">
			<path id="Layer" class="s0" d="m46.8 64.2c-0.8 0-1.4-0.6-1.4-1.4 0-0.8 0.6-1.4 1.4-1.4 0.8 0 1.4 0.6 1.4 1.4 0 0.8-0.6 1.4-1.4 1.4z"/>
		</g>
		<g id="Layer">
			<path id="Layer" class="s0" d="m62.8 61.4c-0.4 0-0.7 0.1-1 0.4-0.3 0.3-0.4 0.6-0.4 1 0 0.4 0.1 0.7 0.4 1 0.3 0.3 0.6 0.4 1 0.4h1.6v-2.8z"/>
		</g>
		<g id="Layer">
			<path id="Layer" class="s0" d="m64.4 61.4h3.2v2.8h-3.2z"/>
		</g>
		<g id="Layer">
			<path id="Layer" class="s0" d="m67.6 61.4h3.2v2.8h-3.2z"/>
		</g>
		<g id="Layer">
			<path id="Layer" class="s0" d="m70.8 61.4h3.2v2.8h-3.2z"/>
		</g>
		<g id="Layer">
			<path id="Layer" class="s0" d="m75.6 64.2c0.4 0 0.7-0.1 1-0.4 0.3-0.3 0.4-0.6 0.4-1 0-0.4-0.1-0.7-0.4-1-0.3-0.3-0.6-0.4-1-0.4h-1.6v2.8z"/>
		</g>
		<g id="Layer">
			<path id="Layer" class="s0" d="m85.2 64.2c-0.8 0-1.4-0.6-1.4-1.4 0-0.8 0.6-1.4 1.4-1.4 0.8 0 1.4 0.6 1.4 1.4 0 0.8-0.6 1.4-1.4 1.4z"/>
		</g>
		<g id="Layer">
			<path id="Layer" class="s0" d="m37.2 64.6c-0.4 0-0.7 0.1-1 0.4-0.3 0.3-0.4 0.6-0.4 1 0 0.4 0.1 0.7 0.4 1 0.3 0.3 0.6 0.4 1 0.4h1.6v-2.8z"/>
		</g>
		<g id="Layer">
			<path id="Layer" class="s0" d="m38.8 64.6h3.2v2.8h-3.2z"/>
		</g>
		<g id="Layer">
			<path id="Layer" class="s0" d="m43.6 67.4c0.4 0 0.7-0.1 1-0.4 0.3-0.3 0.4-0.6 0.4-1 0-0.4-0.1-0.7-0.4-1-0.3-0.3-0.6-0.4-1-0.4h-1.6v2.8z"/>
		</g>
		<g id="Layer">
			<path id="Layer" class="s0" d="m50 64.6c-0.4 0-0.7 0.1-1 0.4-0.3 0.3-0.4 0.6-0.4 1 0 0.4 0.1 0.7 0.4 1 0.3 0.3 0.6 0.4 1 0.4h1.6v-2.8z"/>
		</g>
		<g id="Layer">
			<path id="Layer" class="s0" d="m51.6 64.6h3.2v2.8h-3.2z"/>
		</g>
		<g id="Layer">
			<path id="Layer" class="s0" d="m54.8 64.6h3.2v2.8h-3.2z"/>
		</g>
		<g id="Layer">
			<path id="Layer" class="s0" d="m58 64.6h3.2v2.8h-3.2z"/>
		</g>
		<g id="Layer">
			<path id="Layer" class="s0" d="m62.8 67.4c0.4 0 0.7-0.1 1-0.4 0.3-0.3 0.4-0.6 0.4-1 0-0.4-0.1-0.7-0.4-1-0.3-0.3-0.6-0.4-1-0.4h-1.6v2.8z"/>
		</g>
		<g id="Layer">
			<path id="Layer" class="s0" d="m75.6 64.6c-0.4 0-0.7 0.1-1 0.4-0.3 0.3-0.4 0.6-0.4 1 0 0.4 0.1 0.7 0.4 1 0.3 0.3 0.6 0.4 1 0.4h1.6v-2.8z"/>
		</g>
		<g id="Layer">
			<path id="Layer" class="s0" d="m77.2 64.6h3.2v2.8h-3.2z"/>
		</g>
		<g id="Layer">
			<path id="Layer" class="s0" d="m82 67.4c0.4 0 0.7-0.1 1-0.4 0.3-0.3 0.4-0.6 0.4-1 0-0.4-0.1-0.7-0.4-1-0.3-0.3-0.6-0.4-1-0.4h-1.6v2.8z"/>
		</g>
		<g id="Layer">
			<path id="Layer" class="s0" d="m43.6 67.8c-0.4 0-0.7 0.1-1 0.4-0.3 0.3-0.4 0.6-0.4 1 0 0.4 0.1 0.7 0.4 1 0.3 0.3 0.6 0.4 1 0.4h1.6v-2.8z"/>
		</g>
		<g id="Layer">
			<path id="Layer" class="s0" d="m45.2 67.8h3.2v2.8h-3.2z"/>
		</g>
		<g id="Layer">
			<path id="Layer" class="s0" d="m50 70.6c0.4 0 0.7-0.1 1-0.4 0.3-0.3 0.4-0.6 0.4-1 0-0.4-0.1-0.7-0.4-1-0.3-0.3-0.6-0.4-1-0.4h-1.6v2.8z"/>
		</g>
		<g id="Layer">
			<path id="Layer" class="s0" d="m56.4 70.6c-0.8 0-1.4-0.6-1.4-1.4 0-0.8 0.6-1.4 1.4-1.4 0.8 0 1.4 0.6 1.4 1.4 0 0.8-0.6 1.4-1.4 1.4z"/>
		</g>
		<g id="Layer">
			<path id="Layer" class="s0" d="m62.8 70.6c-0.8 0-1.4-0.6-1.4-1.4 0-0.8 0.6-1.4 1.4-1.4 0.8 0 1.4 0.6 1.4 1.4 0 0.8-0.6 1.4-1.4 1.4z"/>
		</g>
		<g id="Layer">
			<path id="Layer" class="s0" d="m69.2 70.6c-0.8 0-1.4-0.6-1.4-1.4 0-0.8 0.6-1.4 1.4-1.4 0.8 0 1.4 0.6 1.4 1.4 0 0.8-0.6 1.4-1.4 1.4z"/>
		</g>
		<g id="Layer">
			<path id="Layer" class="s0" d="m75.6 70.6c-0.8 0-1.4-0.6-1.4-1.4 0-0.8 0.6-1.4 1.4-1.4 0.8 0 1.4 0.6 1.4 1.4 0 0.8-0.6 1.4-1.4 1.4z"/>
		</g>
		<g id="Layer">
			<path id="Layer" class="s0" d="m82 67.8c-0.4 0-0.7 0.1-1 0.4-0.3 0.3-0.4 0.6-0.4 1 0 0.4 0.1 0.7 0.4 1 0.3 0.3 0.6 0.4 1 0.4h1.6v-2.8z"/>
		</g>
		<g id="Layer">
			<path id="Layer" class="s0" d="m83.6 67.8h3.2v2.8h-3.2z"/>
		</g>
		<g id="Layer">
			<path id="Layer" class="s0" d="m88.4 70.6c0.4 0 0.7-0.1 1-0.4 0.3-0.3 0.4-0.6 0.4-1 0-0.4-0.1-0.7-0.4-1-0.3-0.3-0.6-0.4-1-0.4h-1.6v2.8z"/>
		</g>
		<g id="Layer">
			<path id="Layer" class="s0" d="m43.6 73.8c-0.8 0-1.4-0.6-1.4-1.4 0-0.8 0.6-1.4 1.4-1.4 0.8 0 1.4 0.6 1.4 1.4 0 0.8-0.6 1.4-1.4 1.4z"/>
		</g>
		<g id="Layer">
			<path id="Layer" class="s0" d="m50 73.8c-0.8 0-1.4-0.6-1.4-1.4 0-0.8 0.6-1.4 1.4-1.4 0.8 0 1.4 0.6 1.4 1.4 0 0.8-0.6 1.4-1.4 1.4z"/>
		</g>
		<g id="Layer">
			<path id="Layer" class="s0" d="m56.4 71c-0.4 0-0.7 0.1-1 0.4-0.3 0.3-0.4 0.6-0.4 1 0 0.4 0.1 0.7 0.4 1 0.3 0.3 0.6 0.4 1 0.4h1.6v-2.8z"/>
		</g>
		<g id="Layer">
			<path id="Layer" class="s0" d="m58 71h3.2v2.8h-3.2z"/>
		</g>
		<g id="Layer">
			<path id="Layer" class="s0" d="m62.8 73.8c0.4 0 0.7-0.1 1-0.4 0.3-0.3 0.4-0.6 0.4-1 0-0.4-0.1-0.7-0.4-1-0.3-0.3-0.6-0.4-1-0.4h-1.6v2.8z"/>
		</g>
		<g id="Layer">
			<path id="Layer" class="s0" d="m75.6 73.8c-0.8 0-1.4-0.6-1.4-1.4 0-0.8 0.6-1.4 1.4-1.4 0.8 0 1.4 0.6 1.4 1.4 0 0.8-0.6 1.4-1.4 1.4z"/>
		</g>
		<g id="Layer">
			<path id="Layer" class="s0" d="m85.2 71c-0.4 0-0.7 0.1-1 0.4-0.3 0.3-0.4 0.6-0.4 1 0 0.4 0.1 0.7 0.4 1 0.3 0.3 0.6 0.4 1 0.4h1.6v-2.8z"/>
		</g>
		<g id="Layer">
			<path id="Layer" class="s0" d="m88.4 73.8c0.4 0 0.7-0.1 1-0.4 0.3-0.3 0.4-0.6 0.4-1 0-0.4-0.1-0.7-0.4-1-0.3-0.3-0.6-0.4-1-0.4h-1.6v2.8z"/>
		</g>
		<g id="Layer">
			<path id="Layer" class="s0" d="m40.4 77c-0.8 0-1.4-0.6-1.4-1.4 0-0.8 0.6-1.4 1.4-1.4 0.8 0 1.4 0.6 1.4 1.4 0 0.8-0.6 1.4-1.4 1.4z"/>
		</g>
		<g id="Layer">
			<path id="Layer" class="s0" d="m46.8 77c-0.8 0-1.4-0.6-1.4-1.4 0-0.8 0.6-1.4 1.4-1.4 0.8 0 1.4 0.6 1.4 1.4 0 0.8-0.6 1.4-1.4 1.4z"/>
		</g>
		<g id="Layer">
			<path id="Layer" class="s0" d="m56.4 74.2c-0.4 0-0.7 0.1-1 0.4-0.3 0.3-0.4 0.6-0.4 1 0 0.4 0.1 0.7 0.4 1 0.3 0.3 0.6 0.4 1 0.4h1.6v-2.8z"/>
		</g>
		<g id="Layer">
			<path id="Layer" class="s0" d="m58 74.2h3.2v2.8h-3.2z"/>
		</g>
		<g id="Layer">
			<path id="Layer" class="s0" d="m61.2 74.2h3.2v2.8h-3.2z"/>
		</g>
		<g id="Layer">
			<path id="Layer" class="s0" d="m64.4 74.2h3.2v2.8h-3.2z"/>
		</g>
		<g id="Layer">
			<path id="Layer" class="s0" d="m67.6 74.2h3.2v2.8h-3.2z"/>
		</g>
		<g id="Layer">
			<path id="Layer" class="s0" d="m70.8 74.2h3.2v2.8h-3.2z"/>
		</g>
		<g id="Layer">
			<path id="Layer" class="s0" d="m75.6 77c0.4 0 0.7-0.1 1-0.4 0.3-0.3 0.4-0.6 0.4-1 0-0.4-0.1-0.7-0.4-1-0.3-0.3-0.6-0.4-1-0.4h-1.6v2.8z"/>
		</g>
		<g id="Layer">
			<path id="Layer" class="s0" d="m82 77c-0.8 0-1.4-0.6-1.4-1.4 0-0.8 0.6-1.4 1.4-1.4 0.8 0 1.4 0.6 1.4 1.4 0 0.8-0.6 1.4-1.4 1.4z"/>
		</g>
		<g id="Layer">
			<path id="Layer" class="s0" d="m88.4 77c-0.8 0-1.4-0.6-1.4-1.4 0-0.8 0.6-1.4 1.4-1.4 0.8 0 1.4 0.6 1.4 1.4 0 0.8-0.6 1.4-1.4 1.4z"/>
		</g>
		<g id="Layer">
			<path id="Layer" class="s0" d="m37.2 80.2c-0.8 0-1.4-0.6-1.4-1.4 0-0.8 0.6-1.4 1.4-1.4 0.8 0 1.4 0.6 1.4 1.4 0 0.8-0.6 1.4-1.4 1.4z"/>
		</g>
		<g id="Layer">
			<path id="Layer" class="s0" d="m43.6 80.2c-0.8 0-1.4-0.6-1.4-1.4 0-0.8 0.6-1.4 1.4-1.4 0.8 0 1.4 0.6 1.4 1.4 0 0.8-0.6 1.4-1.4 1.4z"/>
		</g>
		<g id="Layer">
			<path id="Layer" class="s0" d="m50 80.2c-0.8 0-1.4-0.6-1.4-1.4 0-0.8 0.6-1.4 1.4-1.4 0.8 0 1.4 0.6 1.4 1.4 0 0.8-0.6 1.4-1.4 1.4z"/>
		</g>
		<g id="Layer">
			<path id="Layer" class="s0" d="m59.6 77.4c-0.4 0-0.7 0.1-1 0.4-0.3 0.3-0.4 0.6-0.4 1 0 0.4 0.1 0.7 0.4 1 0.3 0.3 0.6 0.4 1 0.4h1.6v-2.8z"/>
		</g>
		<g id="Layer">
			<path id="Layer" class="s0" d="m62.8 80.2c0.4 0 0.7-0.1 1-0.4 0.3-0.3 0.4-0.6 0.4-1 0-0.4-0.1-0.7-0.4-1-0.3-0.3-0.6-0.4-1-0.4h-1.6v2.8z"/>
		</g>
		<g id="Layer">
			<path id="Layer" class="s0" d="m69.2 80.2c-0.8 0-1.4-0.6-1.4-1.4 0-0.8 0.6-1.4 1.4-1.4 0.8 0 1.4 0.6 1.4 1.4 0 0.8-0.6 1.4-1.4 1.4z"/>
		</g>
		<g id="Layer">
			<path id="Layer" class="s0" d="m75.6 80.2c-0.8 0-1.4-0.6-1.4-1.4 0-0.8 0.6-1.4 1.4-1.4 0.8 0 1.4 0.6 1.4 1.4 0 0.8-0.6 1.4-1.4 1.4z"/>
		</g>
		<g id="Layer">
			<path id="Layer" class="s0" d="m85.2 77.4c-0.4 0-0.7 0.1-1 0.4-0.3 0.3-0.4 0.6-0.4 1 0 0.4 0.1 0.7 0.4 1 0.3 0.3 0.6 0.4 1 0.4h1.6v-2.8z"/>
		</g>
		<g id="Layer">
			<path id="Layer" class="s0" d="m88.4 80.2c0.4 0 0.7-0.1 1-0.4 0.3-0.3 0.4-0.6 0.4-1 0-0.4-0.1-0.7-0.4-1-0.3-0.3-0.6-0.4-1-0.4h-1.6v2.8z"/>
		</g>
		<g id="Layer">
			<path id="Layer" class="s0" d="m37.2 80.6c-0.4 0-0.7 0.1-1 0.4-0.3 0.3-0.4 0.6-0.4 1 0 0.4 0.1 0.7 0.4 1 0.3 0.3 0.6 0.4 1 0.4h1.6v-2.8z"/>
		</g>
		<g id="Layer">
			<path id="Layer" class="s0" d="m38.8 80.6h3.2v2.8h-3.2z"/>
		</g>
		<g id="Layer">
			<path id="Layer" class="s0" d="m42 80.6h3.2v2.8h-3.2z"/>
		</g>
		<g id="Layer">
			<path id="Layer" class="s0" d="m46.8 83.4c0.4 0 0.7-0.1 1-0.4 0.3-0.3 0.4-0.6 0.4-1 0-0.4-0.1-0.7-0.4-1-0.3-0.3-0.6-0.4-1-0.4h-1.6v2.8z"/>
		</g>
		<g id="Layer">
			<path id="Layer" class="s0" d="m53.2 83.4c-0.8 0-1.4-0.6-1.4-1.4 0-0.8 0.6-1.4 1.4-1.4 0.8 0 1.4 0.6 1.4 1.4 0 0.8-0.6 1.4-1.4 1.4z"/>
		</g>
		<g id="Layer">
			<path id="Layer" class="s0" d="m59.6 83.4c-0.8 0-1.4-0.6-1.4-1.4 0-0.8 0.6-1.4 1.4-1.4 0.8 0 1.4 0.6 1.4 1.4 0 0.8-0.6 1.4-1.4 1.4z"/>
		</g>
		<g id="Layer">
			<path id="Layer" class="s0" d="m66 80.6c-0.4 0-0.7 0.1-1 0.4-0.3 0.3-0.4 0.6-0.4 1 0 0.4 0.1 0.7 0.4 1 0.3 0.3 0.6 0.4 1 0.4h1.6v-2.8z"/>
		</g>
		<g id="Layer">
			<path id="Layer" class="s0" d="m69.2 83.4c0.4 0 0.7-0.1 1-0.4 0.3-0.3 0.4-0.6 0.4-1 0-0.4-0.1-0.7-0.4-1-0.3-0.3-0.6-0.4-1-0.4h-1.6v2.8z"/>
		</g>
		<g id="Layer">
			<path id="Layer" class="s0" d="m78.8 80.6c-0.4 0-0.7 0.1-1 0.4-0.3 0.3-0.4 0.6-0.4 1 0 0.4 0.1 0.7 0.4 1 0.3 0.3 0.6 0.4 1 0.4h1.6v-2.8z"/>
		</g>
		<g id="Layer">
			<path id="Layer" class="s0" d="m80.4 80.6h3.2v2.8h-3.2z"/>
		</g>
		<g id="Layer">
			<path id="Layer" class="s0" d="m85.2 83.4c0.4 0 0.7-0.1 1-0.4 0.3-0.3 0.4-0.6 0.4-1 0-0.4-0.1-0.7-0.4-1-0.3-0.3-0.6-0.4-1-0.4h-1.6v2.8z"/>
		</g>
		<g id="Layer">
			<path id="Layer" class="s0" d="m37.2 86.6c-0.8 0-1.4-0.6-1.4-1.4 0-0.8 0.6-1.4 1.4-1.4 0.8 0 1.4 0.6 1.4 1.4 0 0.8-0.6 1.4-1.4 1.4z"/>
		</g>
		<g id="Layer">
			<path id="Layer" class="s0" d="m59.6 86.6c-0.8 0-1.4-0.6-1.4-1.4 0-0.8 0.6-1.4 1.4-1.4 0.8 0 1.4 0.6 1.4 1.4 0 0.8-0.6 1.4-1.4 1.4z"/>
		</g>
		<g id="Layer">
			<path id="Layer" class="s0" d="m66 86.6c-0.8 0-1.4-0.6-1.4-1.4 0-0.8 0.6-1.4 1.4-1.4 0.8 0 1.4 0.6 1.4 1.4 0 0.8-0.6 1.4-1.4 1.4z"/>
		</g>
		<g id="Layer">
			<path id="Layer" class="s0" d="m75.6 86.6c-0.8 0-1.4-0.6-1.4-1.4 0-0.8 0.6-1.4 1.4-1.4 0.8 0 1.4 0.6 1.4 1.4 0 0.8-0.6 1.4-1.4 1.4z"/>
		</g>
		<g id="Layer">
			<path id="Layer" class="s0" d="m82 83.8c-0.4 0-0.7 0.1-1 0.4-0.3 0.3-0.4 0.6-0.4 1 0 0.4 0.1 0.7 0.4 1 0.3 0.3 0.6 0.4 1 0.4h1.6v-2.8z"/>
		</g>
		<g id="Layer">
			<path id="Layer" class="s0" d="m83.6 83.8h3.2v2.8h-3.2z"/>
		</g>
		<g id="Layer">
			<path id="Layer" class="s0" d="m88.4 86.6c0.4 0 0.7-0.1 1-0.4 0.3-0.3 0.4-0.6 0.4-1 0-0.4-0.1-0.7-0.4-1-0.3-0.3-0.6-0.4-1-0.4h-1.6v2.8z"/>
		</g>
		<g id="Layer">
			<path id="Layer" class="s0" d="m37.2 87c-0.4 0-0.7 0.1-1 0.4-0.3 0.3-0.4 0.6-0.4 1 0 0.4 0.1 0.7 0.4 1 0.3 0.3 0.6 0.4 1 0.4h1.6v-2.8z"/>
		</g>
		<g id="Layer">
			<path id="Layer" class="s0" d="m38.8 87h3.2v2.8h-3.2z"/>
		</g>
		<g id="Layer">
			<path id="Layer" class="s0" d="m43.6 89.8c0.4 0 0.7-0.1 1-0.4 0.3-0.3 0.4-0.6 0.4-1 0-0.4-0.1-0.7-0.4-1-0.3-0.3-0.6-0.4-1-0.4h-1.6v2.8z"/>
		</g>
		<g id="Layer">
			<path id="Layer" class="s0" d="m50 87c-0.4 0-0.7 0.1-1 0.4-0.3 0.3-0.4 0.6-0.4 1 0 0.4 0.1 0.7 0.4 1 0.3 0.3 0.6 0.4 1 0.4h1.6v-2.8z"/>
		</g>
		<g id="Layer">
			<path id="Layer" class="s0" d="m51.6 87h3.2v2.8h-3.2z"/>
		</g>
		<g id="Layer">
			<path id="Layer" class="s0" d="m54.8 87h3.2v2.8h-3.2z"/>
		</g>
		<g id="Layer">
			<path id="Layer" class="s0" d="m59.6 89.8c0.4 0 0.7-0.1 1-0.4 0.3-0.3 0.4-0.6 0.4-1 0-0.4-0.1-0.7-0.4-1-0.3-0.3-0.6-0.4-1-0.4h-1.6v2.8z"/>
		</g>
		<g id="Layer">
			<path id="Layer" class="s0" d="m82 87c-0.4 0-0.7 0.1-1 0.4-0.3 0.3-0.4 0.6-0.4 1 0 0.4 0.1 0.7 0.4 1 0.3 0.3 0.6 0.4 1 0.4h1.6v-2.8z"/>
		</g>
		<g id="Layer">
			<path id="Layer" class="s0" d="m83.6 87h3.2v2.8h-3.2z"/>
		</g>
		<g id="Layer">
			<path id="Layer" class="s0" d="m88.4 89.8c0.4 0 0.7-0.1 1-0.4 0.3-0.3 0.4-0.6 0.4-1 0-0.4-0.1-0.7-0.4-1-0.3-0.3-0.6-0.4-1-0.4h-1.6v2.8z"/>
		</g>
		<g id="Ebene_1">
			<path id="Layer" fill-rule="evenodd" class="s0" d="m31.7 10c0.4 0 0.7 0.3 0.7 0.7v21c0 0.4-0.3 0.7-0.7 0.7h-21c-0.4 0-0.7-0.3-0.7-0.7v-21c0-0.4 0.3-0.7 0.7-0.7zm-2.5 3.6c0-0.2-0.2-0.4-0.4-0.4h-15.3c-0.2 0-0.3 0.2-0.3 0.4v15.2c0 0.2 0.1 0.4 0.3 0.4h15.3c0.2 0 0.4-0.2 0.4-0.4z"/>
		</g>
		<g id="Ebene_1">
			<path id="Layer" class="s0" d="m26 22.8v-3.2-2.5c0-0.4-0.3-0.7-0.7-0.7h-8.2c-0.4 0-0.7 0.3-0.7 0.7v2.5 3.2 2.5c0 0.4 0.3 0.7 0.7 0.7h8.2c0.4 0 0.7-0.3 0.7-0.7z"/>
		</g>
		<g id="Ebene_1">
			<path id="Layer" fill-rule="evenodd" class="s0" d="m89.3 10c0.4 0 0.7 0.3 0.7 0.7v21c0 0.4-0.3 0.7-0.7 0.7h-21c-0.4 0-0.7-0.3-0.7-0.7v-21c0-0.4 0.3-0.7 0.7-0.7zm-2.5 3.6c0-0.2-0.2-0.4-0.4-0.4h-15.3c-0.2 0-0.3 0.2-0.3 0.4v15.2c0 0.2 0.1 0.4 0.3 0.4h15.3c0.2 0 0.4-0.2 0.4-0.4z"/>
		</g>
		<g id="Ebene_1">
			<path id="Layer" class="s0" d="m83.6 22.8v-3.2-2.5c0-0.4-0.3-0.7-0.7-0.7h-8.2c-0.4 0-0.7 0.3-0.7 0.7v2.5 3.2 2.5c0 0.4 0.3 0.7 0.7 0.7h8.2c0.4 0 0.7-0.3 0.7-0.7z"/>
		</g>
		<g id="Ebene_1">
			<path id="Layer" fill-rule="evenodd" class="s0" d="m31.7 67.6c0.4 0 0.7 0.3 0.7 0.7v21c0 0.4-0.3 0.7-0.7 0.7h-21c-0.4 0-0.7-0.3-0.7-0.7v-21c0-0.4 0.3-0.7 0.7-0.7zm-2.5 3.6c0-0.2-0.2-0.4-0.4-0.4h-15.3c-0.2 0-0.3 0.2-0.3 0.4v15.2c0 0.2 0.1 0.4 0.3 0.4h15.3c0.2 0 0.4-0.2 0.4-0.4z"/>
		</g>
		<g id="Ebene_1">
			<path id="Layer" class="s0" d="m26 80.4v-3.2-2.5c0-0.4-0.3-0.7-0.7-0.7h-8.2c-0.4 0-0.7 0.3-0.7 0.7v2.5 3.2 2.5c0 0.4 0.3 0.7 0.7 0.7h8.2c0.4 0 0.7-0.3 0.7-0.7z"/>
		</g>
	</g>
</svg>